<svg version="1.0" xmlns="http://www.w3.org/2000/svg"
 viewBox="-5 0 150 150"
 preserveAspectRatio="xMidYMid meet">
<metadata>
    </metadata>
<g transform="translate(0.000000,150.000000) scale(0.100000,-0.100000)"
    fill="#ffffff" stroke="none">
    <path d="M1301 1373 c-96 -188 -82 -173 -198 -222 -57 -24 -113 -45 -123 -48
    -32 -8 -23 -21 20 -28 22 -4 40 -11 40 -16 0 -12 -99 -174 -182 -299 -302
    -451 -549 -612 -613 -398 -19 64 -19 104 0 193 21 99 73 200 137 270 151 163
    298 136 367 -68 l17 -49 58 87 c67 101 66 107 -12 176 -86 76 -213 89 -353 36
    -219 -83 -375 -267 -416 -492 -37 -202 37 -391 169 -430 28 -8 53 -13 57 -11
    3 2 29 6 56 10 153 18 324 106 465 240 28 27 49 50 47 52 -9 9 -54 -16 -97
    -53 -61 -53 -139 -108 -145 -101 -3 2 19 29 48 60 99 105 162 174 193 214 175
    223 224 294 380 539 39 61 90 143 113 183 41 68 70 91 72 57 4 -99 3 -107 -32
    -134 -42 -32 -68 -62 -69 -78 0 -7 -4 -13 -10 -13 -5 0 -10 -4 -10 -10 0 -9
    -107 -180 -130 -207 -5 -7 -10 -17 -10 -23 0 -5 -4 -10 -9 -10 -5 0 -12 -8
    -16 -19 -3 -10 -26 -45 -52 -77 -72 -92 -83 -123 -68 -192 34 -158 102 -248
    213 -280 23 -7 42 -16 42 -20 0 -19 -49 -35 -106 -34 -104 2 -192 53 -258 150
    -16 23 -31 42 -33 42 -8 0 9 -45 31 -80 11 -19 20 -38 19 -42 -3 -9 40 -39
    107 -74 46 -24 68 -28 130 -29 81 0 136 20 195 71 l30 25 -30 -5 c-16 -2 -46
    -1 -65 4 l-35 8 38 1 c20 1 37 5 37 10 0 5 -19 5 -44 0 -103 -19 -187 68 -235
    241 l-20 71 82 117 c77 110 258 391 284 440 1 2 15 -11 32 -30 l30 -33 1 190
    0 190 -86 -150 c-354 -614 -713 -1056 -958 -1176 -61 -30 -61 -30 -31 -4 l30
    26 -33 -16 c-38 -18 -114 -22 -153 -7 -35 14 -82 65 -115 125 -32 59 -42 171
    -25 271 17 100 79 219 154 298 61 64 159 138 184 138 7 0 13 5 13 10 0 6 8 10
    18 10 10 0 22 3 26 7 13 13 100 32 149 33 83 0 134 -18 183 -67 41 -41 58 -83
    34 -83 -5 0 -10 -4 -10 -10 0 -14 -32 -50 -45 -50 -5 0 -16 13 -23 28 -7 16
    -28 47 -47 69 -102 120 -301 54 -407 -134 -18 -32 -33 -60 -34 -63 0 -3 -7
    -21 -16 -41 -45 -102 -51 -283 -12 -350 30 -52 78 -71 145 -59 52 9 88 23 118
    45 27 20 230 219 226 223 -2 2 4 12 13 21 10 10 24 28 32 41 8 13 39 53 67 89
    29 36 60 80 68 96 17 34 18 34 97 157 51 79 56 93 53 132 -3 42 -1 45 28 57
    63 27 74 19 40 -32 -14 -22 -24 -41 -22 -44 3 -2 23 26 45 63 22 37 49 71 61
    77 12 5 43 47 68 92 39 69 51 83 66 78 17 -6 19 -1 19 59 0 36 -2 66 -4 66 -3
    0 -27 -44 -55 -97z"/>
    <path d="M1054 958 c-21 -35 -44 -73 -52 -85 -8 -13 -12 -23 -9 -23 3 0 22 28
    43 63 21 34 44 72 52 85 8 12 12 22 9 22 -3 0 -22 -28 -43 -62z"/>
    <path d="M944 783 c-20 -32 -50 -77 -66 -100 -16 -24 -27 -43 -24 -43 3 0 32
    39 64 88 73 109 74 112 69 112 -3 0 -22 -26 -43 -57z"/>
    <path d="M763 528 c-43 -57 -108 -139 -146 -183 -45 -52 -51 -61 -17 -26 82
    86 260 311 246 311 -3 0 -40 -46 -83 -102z"/>
    <path d="M833 326 c9 -23 50 -75 60 -75 5 -1 -6 18 -24 42 -42 54 -43 55 -36
    33z"/>
</g>
</svg>